<?xml version="1.0" encoding="UTF-8"?>
<svg width="304px" height="284px" viewBox="0 0 304 284" version="1.1" xmlns="http://www.w3.org/2000/svg" xmlns:xlink="http://www.w3.org/1999/xlink">
    <!-- Generator: Sketch 47 (45396) - http://www.bohemiancoding.com/sketch -->
    <title>Group 18 Copy 3</title>
    <desc>Created with Sketch.</desc>
    <defs>
        <rect id="path-1" x="0" y="0" width="304" height="284"></rect>
    </defs>
    <g id="Page-1" stroke="none" stroke-width="1" fill="none" fill-rule="evenodd">
        <g id="Group-18-Copy-3">
            <mask id="mask-2" fill="white">
                <use xlink:href="#path-1"></use>
            </mask>
            <use id="Mask" fill="#FFFFFF" xlink:href="#path-1"></use>
            <g id="Group-18" mask="url(#mask-2)" fill="#00ACC1">
                <g transform="translate(-79.000000, -9.000000)">
                    <path d="M137.5,92 C136.088963,92 134.677925,92.352063 133.404817,93.0562533 L116.325,102.503352 C113.655209,103.980038 112,106.778036 112,109.814234 L112,128.185831 C112,131.222029 113.655209,134.019962 116.325,135.496648 L133.404817,144.943747 C134.677925,145.647937 136.088963,146 137.5,146 C138.911037,146 140.322139,145.647937 141.595183,144.943747 L158.675065,135.496648 C161.344791,134.019962 163,131.222029 163,128.185831 L163,109.814234 C163,106.778036 161.344791,103.980038 158.675065,102.503352 L141.595183,93.0562533 C140.322139,92.352063 138.911037,92 137.5,92" id="Fill-1-Copy-14" opacity="0.151721014"></path>
                    <path d="M137.5,184 C136.088963,184 134.677925,184.352063 133.404817,185.056253 L116.325,194.503352 C113.655209,195.980038 112,198.778036 112,201.814234 L112,220.185831 C112,223.222029 113.655209,226.019962 116.325,227.496648 L133.404817,236.943747 C134.677925,237.647937 136.088963,238 137.5,238 C138.911037,238 140.322139,237.647937 141.595183,236.943747 L158.675065,227.496648 C161.344791,226.019962 163,223.222029 163,220.185831 L163,201.814234 C163,198.778036 161.344791,195.980038 158.675065,194.503352 L141.595183,185.056253 C140.322139,184.352063 138.911037,184 137.5,184" id="Fill-1-Copy-26" opacity="0.151721014"></path>
                    <path d="M137.5,0 C136.088963,0 134.677925,0.352063 133.404817,1.05625326 L116.325,10.5033521 C113.655209,11.9800376 112,14.7780356 112,17.8142336 L112,36.1858307 C112,39.2220287 113.655209,42.0199624 116.325,43.4966479 L133.404817,52.9437467 C134.677925,53.647937 136.088963,54 137.5,54 C138.911037,54 140.322139,53.647937 141.595183,52.9437467 L158.675065,43.4966479 C161.344791,42.0199624 163,39.2220287 163,36.1858307 L163,17.8142336 C163,14.7780356 161.344791,11.9800376 158.675065,10.5033521 L141.595183,1.05625326 C140.322139,0.352063 138.911037,0 137.5,0" id="Fill-1-Copy-53" opacity="0.151721014"></path>
                    <path d="M221.5,138 C220.088963,138 218.677925,138.352063 217.404817,139.056253 L200.325,148.503352 C197.655209,149.980038 196,152.778036 196,155.814234 L196,174.185831 C196,177.222029 197.655209,180.019962 200.325,181.496648 L217.404817,190.943747 C218.677925,191.647937 220.088963,192 221.5,192 C222.911037,192 224.322139,191.647937 225.595183,190.943747 L242.675065,181.496648 C245.344791,180.019962 247,177.222029 247,174.185831 L247,155.814234 C247,152.778036 245.344791,149.980038 242.675065,148.503352 L225.595183,139.056253 C224.322139,138.352063 222.911037,138 221.5,138" id="Fill-1-Copy-16" opacity="0.247509058"></path>
                    <path d="M193.5,276 C192.088963,276 190.677925,276.352063 189.404817,277.056253 L172.325,286.503352 C169.655209,287.980038 168,290.778036 168,293.814234 L168,312.185831 C168,315.222029 169.655209,318.019962 172.325,319.496648 L189.404817,328.943747 C190.677925,329.647937 192.088963,330 193.5,330 C194.911037,330 196.322139,329.647937 197.595183,328.943747 L214.675065,319.496648 C217.344791,318.019962 219,315.222029 219,312.185831 L219,293.814234 C219,290.778036 217.344791,287.980038 214.675065,286.503352 L197.595183,277.056253 C196.322139,276.352063 194.911037,276 193.5,276" id="Fill-1-Copy-46" opacity="0.247509058"></path>
                    <path d="M221.5,46 C220.088963,46 218.677925,46.352063 217.404817,47.0562533 L200.325,56.5033521 C197.655209,57.9800376 196,60.7780356 196,63.8142336 L196,82.1858307 C196,85.2220287 197.655209,88.0199624 200.325,89.4966479 L217.404817,98.9437467 C218.677925,99.647937 220.088963,100 221.5,100 C222.911037,100 224.322139,99.647937 225.595183,98.9437467 L242.675065,89.4966479 C245.344791,88.0199624 247,85.2220287 247,82.1858307 L247,63.8142336 C247,60.7780356 245.344791,57.9800376 242.675065,56.5033521 L225.595183,47.0562533 C224.322139,46.352063 222.911037,46 221.5,46" id="Fill-1-Copy-39" opacity="0.353940217"></path>
                    <path d="M221.5,230 C220.088963,230 218.677925,230.352063 217.404817,231.056253 L200.325,240.503352 C197.655209,241.980038 196,244.778036 196,247.814234 L196,266.185831 C196,269.222029 197.655209,272.019962 200.325,273.496648 L217.404817,282.943747 C218.677925,283.647937 220.088963,284 221.5,284 C222.911037,284 224.322139,283.647937 225.595183,282.943747 L242.675065,273.496648 C245.344791,272.019962 247,269.222029 247,266.185831 L247,247.814234 C247,244.778036 245.344791,241.980038 242.675065,240.503352 L225.595183,231.056253 C224.322139,230.352063 222.911037,230 221.5,230" id="Fill-1-Copy-27" opacity="0.0825973732"></path>
                    <path d="M165.5,138 C164.088963,138 162.677925,138.352063 161.404817,139.056253 L144.325,148.503352 C141.655209,149.980038 140,152.778036 140,155.814234 L140,174.185831 C140,177.222029 141.655209,180.019962 144.325,181.496648 L161.404817,190.943747 C162.677925,191.647937 164.088963,192 165.5,192 C166.911037,192 168.322139,191.647937 169.595183,190.943747 L186.675065,181.496648 C189.344791,180.019962 191,177.222029 191,174.185831 L191,155.814234 C191,152.778036 189.344791,149.980038 186.675065,148.503352 L169.595183,139.056253 C168.322139,138.352063 166.911037,138 165.5,138" id="Fill-1-Copy-19" opacity="0.353940217"></path>
                    <path d="M137.5,276 C136.088963,276 134.677925,276.352063 133.404817,277.056253 L116.325,286.503352 C113.655209,287.980038 112,290.778036 112,293.814234 L112,312.185831 C112,315.222029 113.655209,318.019962 116.325,319.496648 L133.404817,328.943747 C134.677925,329.647937 136.088963,330 137.5,330 C138.911037,330 140.322139,329.647937 141.595183,328.943747 L158.675065,319.496648 C161.344791,318.019962 163,315.222029 163,312.185831 L163,293.814234 C163,290.778036 161.344791,287.980038 158.675065,286.503352 L141.595183,277.056253 C140.322139,276.352063 138.911037,276 137.5,276" id="Fill-1-Copy-47" opacity="0.353940217"></path>
                    <path d="M165.5,46 C164.088963,46 162.677925,46.352063 161.404817,47.0562533 L144.325,56.5033521 C141.655209,57.9800376 140,60.7780356 140,63.8142336 L140,82.1858307 C140,85.2220287 141.655209,88.0199624 144.325,89.4966479 L161.404817,98.9437467 C162.677925,99.647937 164.088963,100 165.5,100 C166.911037,100 168.322139,99.647937 169.595183,98.9437467 L186.675065,89.4966479 C189.344791,88.0199624 191,85.2220287 191,82.1858307 L191,63.8142336 C191,60.7780356 189.344791,57.9800376 186.675065,56.5033521 L169.595183,47.0562533 C168.322139,46.352063 166.911037,46 165.5,46" id="Fill-1-Copy-40" opacity="0.353940217"></path>
                    <path d="M165.5,230 C164.088963,230 162.677925,230.352063 161.404817,231.056253 L144.325,240.503352 C141.655209,241.980038 140,244.778036 140,247.814234 L140,266.185831 C140,269.222029 141.655209,272.019962 144.325,273.496648 L161.404817,282.943747 C162.677925,283.647937 164.088963,284 165.5,284 C166.911037,284 168.322139,283.647937 169.595183,282.943747 L186.675065,273.496648 C189.344791,272.019962 191,269.222029 191,266.185831 L191,247.814234 C191,244.778036 189.344791,241.980038 186.675065,240.503352 L169.595183,231.056253 C168.322139,230.352063 166.911037,230 165.5,230" id="Fill-1-Copy-28" opacity="0.353940217"></path>
                    <path d="M389.5,138 C388.088963,138 386.677925,138.352063 385.404817,139.056253 L368.325,148.503352 C365.655209,149.980038 364,152.778036 364,155.814234 L364,174.185831 C364,177.222029 365.655209,180.019962 368.325,181.496648 L385.404817,190.943747 C386.677925,191.647937 388.088963,192 389.5,192 C390.911037,192 392.322139,191.647937 393.595183,190.943747 L410.675065,181.496648 C413.344791,180.019962 415,177.222029 415,174.185831 L415,155.814234 C415,152.778036 413.344791,149.980038 410.675065,148.503352 L393.595183,139.056253 C392.322139,138.352063 390.911037,138 389.5,138" id="Fill-1-Copy-25" opacity="0.495640851"></path>
                    <path d="M361.5,276 C360.088963,276 358.677925,276.352063 357.404817,277.056253 L340.325,286.503352 C337.655209,287.980038 336,290.778036 336,293.814234 L336,312.185831 C336,315.222029 337.655209,318.019962 340.325,319.496648 L357.404817,328.943747 C358.677925,329.647937 360.088963,330 361.5,330 C362.911037,330 364.322139,329.647937 365.595183,328.943747 L382.675065,319.496648 C385.344791,318.019962 387,315.222029 387,312.185831 L387,293.814234 C387,290.778036 385.344791,287.980038 382.675065,286.503352 L365.595183,277.056253 C364.322139,276.352063 362.911037,276 361.5,276" id="Fill-1-Copy-48" opacity="0.495640851"></path>
                    <path d="M389.5,46 C388.088963,46 386.677925,46.352063 385.404817,47.0562533 L368.325,56.5033521 C365.655209,57.9800376 364,60.7780356 364,63.8142336 L364,82.1858307 C364,85.2220287 365.655209,88.0199624 368.325,89.4966479 L385.404817,98.9437467 C386.677925,99.647937 388.088963,100 389.5,100 C390.911037,100 392.322139,99.647937 393.595183,98.9437467 L410.675065,89.4966479 C413.344791,88.0199624 415,85.2220287 415,82.1858307 L415,63.8142336 C415,60.7780356 413.344791,57.9800376 410.675065,56.5033521 L393.595183,47.0562533 C392.322139,46.352063 390.911037,46 389.5,46" id="Fill-1-Copy-41" opacity="0.353940217"></path>
                    <path d="M389.5,230 C388.088963,230 386.677925,230.352063 385.404817,231.056253 L368.325,240.503352 C365.655209,241.980038 364,244.778036 364,247.814234 L364,266.185831 C364,269.222029 365.655209,272.019962 368.325,273.496648 L385.404817,282.943747 C386.677925,283.647937 388.088963,284 389.5,284 C390.911037,284 392.322139,283.647937 393.595183,282.943747 L410.675065,273.496648 C413.344791,272.019962 415,269.222029 415,266.185831 L415,247.814234 C415,244.778036 413.344791,241.980038 410.675065,240.503352 L393.595183,231.056253 C392.322139,230.352063 390.911037,230 389.5,230" id="Fill-1-Copy-29" opacity="0.495640851"></path>
                    <path d="M109.5,138 C108.088963,138 106.677925,138.352063 105.404817,139.056253 L88.3249997,148.503352 C85.6552093,149.980038 84,152.778036 84,155.814234 L84,174.185831 C84,177.222029 85.6552093,180.019962 88.3249997,181.496648 L105.404817,190.943747 C106.677925,191.647937 108.088963,192 109.5,192 C110.911037,192 112.322139,191.647937 113.595183,190.943747 L130.675065,181.496648 C133.344791,180.019962 135,177.222029 135,174.185831 L135,155.814234 C135,152.778036 133.344791,149.980038 130.675065,148.503352 L113.595183,139.056253 C112.322139,138.352063 110.911037,138 109.5,138" id="Fill-1-Copy-17" opacity="0.353940217"></path>
                    <path d="M109.5,46 C108.088963,46 106.677925,46.352063 105.404817,47.0562533 L88.3249997,56.5033521 C85.6552093,57.9800376 84,60.7780356 84,63.8142336 L84,82.1858307 C84,85.2220287 85.6552093,88.0199624 88.3249997,89.4966479 L105.404817,98.9437467 C106.677925,99.647937 108.088963,100 109.5,100 C110.911037,100 112.322139,99.647937 113.595183,98.9437467 L130.675065,89.4966479 C133.344791,88.0199624 135,85.2220287 135,82.1858307 L135,63.8142336 C135,60.7780356 133.344791,57.9800376 130.675065,56.5033521 L113.595183,47.0562533 C112.322139,46.352063 110.911037,46 109.5,46" id="Fill-1-Copy-42" opacity="0.0825973732"></path>
                    <path d="M109.5,230 C108.088963,230 106.677925,230.352063 105.404817,231.056253 L88.3249997,240.503352 C85.6552093,241.980038 84,244.778036 84,247.814234 L84,266.185831 C84,269.222029 85.6552093,272.019962 88.3249997,273.496648 L105.404817,282.943747 C106.677925,283.647937 108.088963,284 109.5,284 C110.911037,284 112.322139,283.647937 113.595183,282.943747 L130.675065,273.496648 C133.344791,272.019962 135,269.222029 135,266.185831 L135,247.814234 C135,244.778036 133.344791,241.980038 130.675065,240.503352 L113.595183,231.056253 C112.322139,230.352063 110.911037,230 109.5,230" id="Fill-1-Copy-30" opacity="0.353940217"></path>
                    <path d="M193.5,92 C192.088963,92 190.677925,92.352063 189.404817,93.0562533 L172.325,102.503352 C169.655209,103.980038 168,106.778036 168,109.814234 L168,128.185831 C168,131.222029 169.655209,134.019962 172.325,135.496648 L189.404817,144.943747 C190.677925,145.647937 192.088963,146 193.5,146 C194.911037,146 196.322139,145.647937 197.595183,144.943747 L214.675065,135.496648 C217.344791,134.019962 219,131.222029 219,128.185831 L219,109.814234 C219,106.778036 217.344791,103.980038 214.675065,102.503352 L197.595183,93.0562533 C196.322139,92.352063 194.911037,92 193.5,92" id="Fill-1-Copy-20" opacity="0.353940217"></path>
                    <path d="M193.5,184 C192.088963,184 190.677925,184.352063 189.404817,185.056253 L172.325,194.503352 C169.655209,195.980038 168,198.778036 168,201.814234 L168,220.185831 C168,223.222029 169.655209,226.019962 172.325,227.496648 L189.404817,236.943747 C190.677925,237.647937 192.088963,238 193.5,238 C194.911037,238 196.322139,237.647937 197.595183,236.943747 L214.675065,227.496648 C217.344791,226.019962 219,223.222029 219,220.185831 L219,201.814234 C219,198.778036 217.344791,195.980038 214.675065,194.503352 L197.595183,185.056253 C196.322139,184.352063 194.911037,184 193.5,184" id="Fill-1-Copy-31" opacity="0.353940217"></path>
                    <path d="M193.5,0 C192.088963,0 190.677925,0.352063 189.404817,1.05625326 L172.325,10.5033521 C169.655209,11.9800376 168,14.7780356 168,17.8142336 L168,36.1858307 C168,39.2220287 169.655209,42.0199624 172.325,43.4966479 L189.404817,52.9437467 C190.677925,53.647937 192.088963,54 193.5,54 C194.911037,54 196.322139,53.647937 197.595183,52.9437467 L214.675065,43.4966479 C217.344791,42.0199624 219,39.2220287 219,36.1858307 L219,17.8142336 C219,14.7780356 217.344791,11.9800376 214.675065,10.5033521 L197.595183,1.05625326 C196.322139,0.352063 194.911037,0 193.5,0" id="Fill-1-Copy-54" opacity="0.353940217"></path>
                    <path d="M361.5,92 C360.088963,92 358.677925,92.352063 357.404817,93.0562533 L340.325,102.503352 C337.655209,103.980038 336,106.778036 336,109.814234 L336,128.185831 C336,131.222029 337.655209,134.019962 340.325,135.496648 L357.404817,144.943747 C358.677925,145.647937 360.088963,146 361.5,146 C362.911037,146 364.322139,145.647937 365.595183,144.943747 L382.675065,135.496648 C385.344791,134.019962 387,131.222029 387,128.185831 L387,109.814234 C387,106.778036 385.344791,103.980038 382.675065,102.503352 L365.595183,93.0562533 C364.322139,92.352063 362.911037,92 361.5,92" id="Fill-1-Copy-18" opacity="0.0825973732"></path>
                    <path d="M361.5,184 C360.088963,184 358.677925,184.352063 357.404817,185.056253 L340.325,194.503352 C337.655209,195.980038 336,198.778036 336,201.814234 L336,220.185831 C336,223.222029 337.655209,226.019962 340.325,227.496648 L357.404817,236.943747 C358.677925,237.647937 360.088963,238 361.5,238 C362.911037,238 364.322139,237.647937 365.595183,236.943747 L382.675065,227.496648 C385.344791,226.019962 387,223.222029 387,220.185831 L387,201.814234 C387,198.778036 385.344791,195.980038 382.675065,194.503352 L365.595183,185.056253 C364.322139,184.352063 362.911037,184 361.5,184" id="Fill-1-Copy-32" opacity="0.353940217"></path>
                    <path d="M361.5,0 C360.088963,0 358.677925,0.352063 357.404817,1.05625326 L340.325,10.5033521 C337.655209,11.9800376 336,14.7780356 336,17.8142336 L336,36.1858307 C336,39.2220287 337.655209,42.0199624 340.325,43.4966479 L357.404817,52.9437467 C358.677925,53.647937 360.088963,54 361.5,54 C362.911037,54 364.322139,53.647937 365.595183,52.9437467 L382.675065,43.4966479 C385.344791,42.0199624 387,39.2220287 387,36.1858307 L387,17.8142336 C387,14.7780356 385.344791,11.9800376 382.675065,10.5033521 L365.595183,1.05625326 C364.322139,0.352063 362.911037,0 361.5,0" id="Fill-1-Copy-55" opacity="0.353940217"></path>
                    <path d="M249.5,92 C248.088963,92 246.677925,92.352063 245.404817,93.0562533 L228.325,102.503352 C225.655209,103.980038 224,106.778036 224,109.814234 L224,128.185831 C224,131.222029 225.655209,134.019962 228.325,135.496648 L245.404817,144.943747 C246.677925,145.647937 248.088963,146 249.5,146 C250.911037,146 252.322139,145.647937 253.595183,144.943747 L270.675065,135.496648 C273.344791,134.019962 275,131.222029 275,128.185831 L275,109.814234 C275,106.778036 273.344791,103.980038 270.675065,102.503352 L253.595183,93.0562533 C252.322139,92.352063 250.911037,92 249.5,92" id="Fill-1-Copy-21" opacity="0.353940217"></path>
                    <path d="M249.5,184 C248.088963,184 246.677925,184.352063 245.404817,185.056253 L228.325,194.503352 C225.655209,195.980038 224,198.778036 224,201.814234 L224,220.185831 C224,223.222029 225.655209,226.019962 228.325,227.496648 L245.404817,236.943747 C246.677925,237.647937 248.088963,238 249.5,238 C250.911037,238 252.322139,237.647937 253.595183,236.943747 L270.675065,227.496648 C273.344791,226.019962 275,223.222029 275,220.185831 L275,201.814234 C275,198.778036 273.344791,195.980038 270.675065,194.503352 L253.595183,185.056253 C252.322139,184.352063 250.911037,184 249.5,184" id="Fill-1-Copy-33" opacity="0.247509058"></path>
                    <path d="M249.5,0 C248.088963,0 246.677925,0.352063 245.404817,1.05625326 L228.325,10.5033521 C225.655209,11.9800376 224,14.7780356 224,17.8142336 L224,36.1858307 C224,39.2220287 225.655209,42.0199624 228.325,43.4966479 L245.404817,52.9437467 C246.677925,53.647937 248.088963,54 249.5,54 C250.911037,54 252.322139,53.647937 253.595183,52.9437467 L270.675065,43.4966479 C273.344791,42.0199624 275,39.2220287 275,36.1858307 L275,17.8142336 C275,14.7780356 273.344791,11.9800376 270.675065,10.5033521 L253.595183,1.05625326 C252.322139,0.352063 250.911037,0 249.5,0" id="Fill-1-Copy-56" opacity="0.247509058"></path>
                    <path d="M277.5,138 C276.088963,138 274.677925,138.352063 273.404817,139.056253 L256.325,148.503352 C253.655209,149.980038 252,152.778036 252,155.814234 L252,174.185831 C252,177.222029 253.655209,180.019962 256.325,181.496648 L273.404817,190.943747 C274.677925,191.647937 276.088963,192 277.5,192 C278.911037,192 280.322139,191.647937 281.595183,190.943747 L298.675065,181.496648 C301.344791,180.019962 303,177.222029 303,174.185831 L303,155.814234 C303,152.778036 301.344791,149.980038 298.675065,148.503352 L281.595183,139.056253 C280.322139,138.352063 278.911037,138 277.5,138" id="Fill-1-Copy-24" opacity="0.353940217"></path>
                    <path d="M249.5,276 C248.088963,276 246.677925,276.352063 245.404817,277.056253 L228.325,286.503352 C225.655209,287.980038 224,290.778036 224,293.814234 L224,312.185831 C224,315.222029 225.655209,318.019962 228.325,319.496648 L245.404817,328.943747 C246.677925,329.647937 248.088963,330 249.5,330 C250.911037,330 252.322139,329.647937 253.595183,328.943747 L270.675065,319.496648 C273.344791,318.019962 275,315.222029 275,312.185831 L275,293.814234 C275,290.778036 273.344791,287.980038 270.675065,286.503352 L253.595183,277.056253 C252.322139,276.352063 250.911037,276 249.5,276" id="Fill-1-Copy-50" opacity="0.353940217"></path>
                    <path d="M277.5,46 C276.088963,46 274.677925,46.352063 273.404817,47.0562533 L256.325,56.5033521 C253.655209,57.9800376 252,60.7780356 252,63.8142336 L252,82.1858307 C252,85.2220287 253.655209,88.0199624 256.325,89.4966479 L273.404817,98.9437467 C274.677925,99.647937 276.088963,100 277.5,100 C278.911037,100 280.322139,99.647937 281.595183,98.9437467 L298.675065,89.4966479 C301.344791,88.0199624 303,85.2220287 303,82.1858307 L303,63.8142336 C303,60.7780356 301.344791,57.9800376 298.675065,56.5033521 L281.595183,47.0562533 C280.322139,46.352063 278.911037,46 277.5,46" id="Fill-1-Copy-43" opacity="0.0825973732"></path>
                    <path d="M277.5,230 C276.088963,230 274.677925,230.352063 273.404817,231.056253 L256.325,240.503352 C253.655209,241.980038 252,244.778036 252,247.814234 L252,266.185831 C252,269.222029 253.655209,272.019962 256.325,273.496648 L273.404817,282.943747 C274.677925,283.647937 276.088963,284 277.5,284 C278.911037,284 280.322139,283.647937 281.595183,282.943747 L298.675065,273.496648 C301.344791,272.019962 303,269.222029 303,266.185831 L303,247.814234 C303,244.778036 301.344791,241.980038 298.675065,240.503352 L281.595183,231.056253 C280.322139,230.352063 278.911037,230 277.5,230" id="Fill-1-Copy-35" opacity="0.495640851"></path>
                    <path d="M333.5,138 C332.088963,138 330.677925,138.352063 329.404817,139.056253 L312.325,148.503352 C309.655209,149.980038 308,152.778036 308,155.814234 L308,174.185831 C308,177.222029 309.655209,180.019962 312.325,181.496648 L329.404817,190.943747 C330.677925,191.647937 332.088963,192 333.5,192 C334.911037,192 336.322139,191.647937 337.595183,190.943747 L354.675065,181.496648 C357.344791,180.019962 359,177.222029 359,174.185831 L359,155.814234 C359,152.778036 357.344791,149.980038 354.675065,148.503352 L337.595183,139.056253 C336.322139,138.352063 334.911037,138 333.5,138" id="Fill-1-Copy-20" opacity="0.247509058"></path>
                    <path d="M305.5,276 C304.088963,276 302.677925,276.352063 301.404817,277.056253 L284.325,286.503352 C281.655209,287.980038 280,290.778036 280,293.814234 L280,312.185831 C280,315.222029 281.655209,318.019962 284.325,319.496648 L301.404817,328.943747 C302.677925,329.647937 304.088963,330 305.5,330 C306.911037,330 308.322139,329.647937 309.595183,328.943747 L326.675065,319.496648 C329.344791,318.019962 331,315.222029 331,312.185831 L331,293.814234 C331,290.778036 329.344791,287.980038 326.675065,286.503352 L309.595183,277.056253 C308.322139,276.352063 306.911037,276 305.5,276" id="Fill-1-Copy-51" opacity="0.247509058"></path>
                    <path d="M333.5,46 C332.088963,46 330.677925,46.352063 329.404817,47.0562533 L312.325,56.5033521 C309.655209,57.9800376 308,60.7780356 308,63.8142336 L308,82.1858307 C308,85.2220287 309.655209,88.0199624 312.325,89.4966479 L329.404817,98.9437467 C330.677925,99.647937 332.088963,100 333.5,100 C334.911037,100 336.322139,99.647937 337.595183,98.9437467 L354.675065,89.4966479 C357.344791,88.0199624 359,85.2220287 359,82.1858307 L359,63.8142336 C359,60.7780356 357.344791,57.9800376 354.675065,56.5033521 L337.595183,47.0562533 C336.322139,46.352063 334.911037,46 333.5,46" id="Fill-1-Copy-44" opacity="0.353940217"></path>
                    <path d="M333.5,230 C332.088963,230 330.677925,230.352063 329.404817,231.056253 L312.325,240.503352 C309.655209,241.980038 308,244.778036 308,247.814234 L308,266.185831 C308,269.222029 309.655209,272.019962 312.325,273.496648 L329.404817,282.943747 C330.677925,283.647937 332.088963,284 333.5,284 C334.911037,284 336.322139,283.647937 337.595183,282.943747 L354.675065,273.496648 C357.344791,272.019962 359,269.222029 359,266.185831 L359,247.814234 C359,244.778036 357.344791,241.980038 354.675065,240.503352 L337.595183,231.056253 C336.322139,230.352063 334.911037,230 333.5,230" id="Fill-1-Copy-36" opacity="0.353940217"></path>
                    <path d="M305.5,92 C304.088963,92 302.677925,92.352063 301.404817,93.0562533 L284.325,102.503352 C281.655209,103.980038 280,106.778036 280,109.814234 L280,128.185831 C280,131.222029 281.655209,134.019962 284.325,135.496648 L301.404817,144.943747 C302.677925,145.647937 304.088963,146 305.5,146 C306.911037,146 308.322139,145.647937 309.595183,144.943747 L326.675065,135.496648 C329.344791,134.019962 331,131.222029 331,128.185831 L331,109.814234 C331,106.778036 329.344791,103.980038 326.675065,102.503352 L309.595183,93.0562533 C308.322139,92.352063 306.911037,92 305.5,92" id="Fill-1-Copy-22" opacity="0.353940217"></path>
                    <path d="M305.5,184 C304.088963,184 302.677925,184.352063 301.404817,185.056253 L284.325,194.503352 C281.655209,195.980038 280,198.778036 280,201.814234 L280,220.185831 C280,223.222029 281.655209,226.019962 284.325,227.496648 L301.404817,236.943747 C302.677925,237.647937 304.088963,238 305.5,238 C306.911037,238 308.322139,237.647937 309.595183,236.943747 L326.675065,227.496648 C329.344791,226.019962 331,223.222029 331,220.185831 L331,201.814234 C331,198.778036 329.344791,195.980038 326.675065,194.503352 L309.595183,185.056253 C308.322139,184.352063 306.911037,184 305.5,184" id="Fill-1-Copy-37" opacity="0.151721014"></path>
                    <path d="M305.5,0 C304.088963,0 302.677925,0.352063 301.404817,1.05625326 L284.325,10.5033521 C281.655209,11.9800376 280,14.7780356 280,17.8142336 L280,36.1858307 C280,39.2220287 281.655209,42.0199624 284.325,43.4966479 L301.404817,52.9437467 C302.677925,53.647937 304.088963,54 305.5,54 C306.911037,54 308.322139,53.647937 309.595183,52.9437467 L326.675065,43.4966479 C329.344791,42.0199624 331,39.2220287 331,36.1858307 L331,17.8142336 C331,14.7780356 329.344791,11.9800376 326.675065,10.5033521 L309.595183,1.05625326 C308.322139,0.352063 306.911037,0 305.5,0" id="Fill-1-Copy-57" opacity="0.151721014"></path>
                    <path d="M81.5,276 C80.0889627,276 78.6779254,276.352063 77.4048168,277.056253 L60.3249997,286.503352 C57.6552093,287.980038 56,290.778036 56,293.814234 L56,312.185831 C56,315.222029 57.6552093,318.019962 60.3249997,319.496648 L77.4048168,328.943747 C78.6779254,329.647937 80.0889627,330 81.5,330 C82.9110373,330 84.3221392,329.647937 85.5951832,328.943747 L102.675065,319.496648 C105.344791,318.019962 107,315.222029 107,312.185831 L107,293.814234 C107,290.778036 105.344791,287.980038 102.675065,286.503352 L85.5951832,277.056253 C84.3221392,276.352063 82.9110373,276 81.5,276" id="Fill-1-Copy-49" opacity="0.353940217"></path>
                    <path d="M81.5,92 C80.0889627,92 78.6779254,92.352063 77.4048168,93.0562533 L60.3249997,102.503352 C57.6552093,103.980038 56,106.778036 56,109.814234 L56,128.185831 C56,131.222029 57.6552093,134.019962 60.3249997,135.496648 L77.4048168,144.943747 C78.6779254,145.647937 80.0889627,146 81.5,146 C82.9110373,146 84.3221392,145.647937 85.5951832,144.943747 L102.675065,135.496648 C105.344791,134.019962 107,131.222029 107,128.185831 L107,109.814234 C107,106.778036 105.344791,103.980038 102.675065,102.503352 L85.5951832,93.0562533 C84.3221392,92.352063 82.9110373,92 81.5,92" id="Fill-1-Copy-15" opacity="0.353940217"></path>
                    <path d="M81.5,184 C80.0889627,184 78.6779254,184.352063 77.4048168,185.056253 L60.3249997,194.503352 C57.6552093,195.980038 56,198.778036 56,201.814234 L56,220.185831 C56,223.222029 57.6552093,226.019962 60.3249997,227.496648 L77.4048168,236.943747 C78.6779254,237.647937 80.0889627,238 81.5,238 C82.9110373,238 84.3221392,237.647937 85.5951832,236.943747 L102.675065,227.496648 C105.344791,226.019962 107,223.222029 107,220.185831 L107,201.814234 C107,198.778036 105.344791,195.980038 102.675065,194.503352 L85.5951832,185.056253 C84.3221392,184.352063 82.9110373,184 81.5,184" id="Fill-1-Copy-34" opacity="0.247509058"></path>
                    <path d="M81.5,0 C80.0889627,0 78.6779254,0.352063 77.4048168,1.05625326 L60.3249997,10.5033521 C57.6552093,11.9800376 56,14.7780356 56,17.8142336 L56,36.1858307 C56,39.2220287 57.6552093,42.0199624 60.3249997,43.4966479 L77.4048168,52.9437467 C78.6779254,53.647937 80.0889627,54 81.5,54 C82.9110373,54 84.3221392,53.647937 85.5951832,52.9437467 L102.675065,43.4966479 C105.344791,42.0199624 107,39.2220287 107,36.1858307 L107,17.8142336 C107,14.7780356 105.344791,11.9800376 102.675065,10.5033521 L85.5951832,1.05625326 C84.3221392,0.352063 82.9110373,0 81.5,0" id="Fill-1-Copy-58" opacity="0.247509058"></path>
                </g>
            </g>
        </g>
    </g>
</svg>
